<svg
    enable-background="new 0 0 280 280"
    height="512"
    viewBox="0 0 280 280"
    width="512"
    xmlns="http://www.w3.org/2000/svg">
    <g>
        <path
            fill="#ffffff" data-original="#000000" style=""
            d="m245.996 42h-191.992c-6.617 0-12.004 5.385-12.004 12.004v147.992c0 6.619 5.387 12.004 12.004 12.004h142.196l37.741 37.742c2.645 2.643 6.16 4.098 9.898 4.098 3.742 0 7.258-1.455 9.898-4.1 2.645-2.645 4.102-6.16 4.102-9.9s-1.457-7.256-4.102-9.9v.002l-17.94-17.942h10.199c6.617 0 12.004-5.385 12.004-12.004v-147.992c0-6.619-5.387-12.004-12.004-12.004zm3.844 199.84c0 1.604-.625 3.109-1.758 4.244-2.262 2.266-6.215 2.27-8.484 0l-65.637-65.637 8.484-8.485 65.637 65.635v.002c1.133 1.131 1.758 2.639 1.758 4.241zm-80.681-67.904-9.21-15.928 15.972 9.166zm76.837 32.064h-18.199l-42.523-42.523c-.25-.25-.531-.465-.836-.641l-33.406-19.166c-1.574-.9-3.551-.643-4.824.645-1.277 1.281-1.535 3.262-.629 4.826l19.262 33.309c.176.301.391.58.637.826l22.722 22.724h-134.196c-2.207 0-4.004-1.797-4.004-4.004v-147.992c0-2.207 1.797-4.004 4.004-4.004h191.992c2.207 0 4.004 1.797 4.004 4.004v7.996h-116c-2.211 0-4 1.791-4 4s1.789 4 4 4h116v131.996c0 2.207-1.797 4.004-4.004 4.004z"/>
        <circle cx="80" cy="80" r="8"/>
        <circle cx="76" cy="60" r="6"/>
        <circle cx="92" cy="60" r="6"/>
        <path
            fill="#ffffff" data-original="#000000" style=""
            d="m100 230c-7.719 0-14 6.281-14 14s6.281 14 14 14 14-6.281 14-14-6.281-14-14-14zm0 20c-3.309 0-6-2.691-6-6s2.691-6 6-6 6 2.691 6 6-2.691 6-6 6z"/>
        <path
            fill="#ffffff" data-original="#000000" style=""
            d="m164 223.47c-2.502 0-4.53 2.028-4.53 4.53 0 2.501 2.028 4.53 4.53 4.53 2.501 0 4.53-2.028 4.53-4.53s-2.029-4.53-4.53-4.53z"/>
        <path
            fill="#ffffff" data-original="#000000" style=""
            d="m134.594 138.184c-2.172-.379-4.254 1.047-4.648 3.221-.84 4.605-2.406 9.49-3.68 11.74-.34-.551-.773-1.363-1.281-2.547-2.09-4.873-4.855-7.062-8.102-6.617-1.434.209-4.348.631-7.242 8.621-.664-1.082-1.828-1.82-3.164-1.904-1.922-.113-3.688 1.166-4.141 3.059-3.961 16.512-11.113 31.732-15.004 31.934-.027.047-3.09.295-7.504-12.221-.184-.52-.359-1.033-.527-1.541 7.766-5.443 16.762-14.307 18.324-26.799.781-6.24-1.418-11.398-5.879-13.797-4.559-2.449-10.516-1.455-15.176 2.539-3.113 2.666-11.957 12.494-6.617 34.48-3.129 1.785-5.371 2.709-5.445 2.738-2.047.824-3.039 3.152-2.219 5.201.824 2.043 3.148 3.035 5.195 2.225.281-.113 2.148-.875 4.828-2.303 2.676 7.57 7.117 17.48 14.945 17.479.16 0 .324-.004.488-.012 7.113-.369 12.715-9.895 16.605-19.623l.41 3.699c.227 2.021 1.93 3.553 3.965 3.559h.012c2.027 0 3.734-1.518 3.973-3.533 1.133-9.639 3.215-19.357 4.984-23.887 1 2.332 3.91 8.682 9.285 8.102 6.203-.701 9.316-10.807 10.832-19.162.4-2.175-1.041-4.257-3.217-4.651zm-52.821 1.761c1.621-1.389 3.242-1.941 4.539-1.941.641 0 1.203.137 1.645.373 1.457.785 2.09 2.885 1.73 5.76-1.051 8.383-6.824 14.9-12.578 19.426-2.304-12.266.563-20.104 4.664-23.618z"/>
        <path
            fill="#ffffff" data-original="#000000" style=""
            d="m122 102v-20c0-2.209-1.789-4-4-4h-56c-2.211 0-4 1.791-4 4v20c0 2.209 1.789 4 4 4h56c2.211 0 4-1.791 4-4zm-8-4h-48v-12h48z"/>
        <path
            fill="#ffffff" data-original="#000000" style=""
            d="m190 78h-56c-2.211 0-4 1.791-4 4v32c0 2.209 1.789 4 4 4h56c2.211 0 4-1.791 4-4v-32c0-2.209-1.789-4-4-4zm-4 32h-48v-24h48z"/>
        <path
            fill="#ffffff" data-original="#000000" style=""
            d="m206 90h24c2.211 0 4-1.791 4-4s-1.789-4-4-4h-24c-2.211 0-4 1.791-4 4s1.789 4 4 4z"/>
        <path
            fill="#ffffff" data-original="#000000" style=""
            d="m206 102h16c2.211 0 4-1.791 4-4s-1.789-4-4-4h-16c-2.211 0-4 1.791-4 4s1.789 4 4 4z"/>
        <path
            fill="#ffffff" data-original="#000000" style=""
            d="m238 106h-32c-2.211 0-4 1.791-4 4s1.789 4 4 4h32c2.211 0 4-1.791 4-4s-1.789-4-4-4z"/>
    </g>
</svg>